<?xml version="1.0" encoding="utf-8"?>
<svg viewBox="591.843 409.469 58.678 69.93" width="5000" height="1376.1809269397752" preserveAspectRatio="none" xmlns="http://www.w3.org/2000/svg">
  <style>.aa4qw3agIkjcolor {fill:#FFFFFF;fill-opacity:1;}.aD6z1nYkhcolor {fill:#176B87;fill-opacity:1;}.aKB1-yO5E8fillColor {fill:#176B87;fill-opacity:1;}.icon3-str {stroke:#797468;stroke-opacity:1;}.shapeStroke-str {stroke:#D24848;stroke-opacity:1;}</style>
  <g opacity="1" transform="rotate(29.7 619.5988 401.7613)">
    <svg width="44.9675" height="64.2738" x="619.5988" y="401.7613" version="1.1" preserveAspectRatio="none" viewBox="39.5 10 121 180">
      <defs>
        <g transform="matrix(1 0 0 1 0 0)" id="id-KB1-yO5E8">
          <g>
            <path d="M157.307 112.881C145.592 85.859 99.863 10 99.863 10S54.415 85.891 42.716 112.881c-2.644 6.099-3.216 12.062-3.216 16.724C39.5 162.954 66.587 190 100.001 190s60.499-27.091 60.499-60.437c0-4.646-.549-10.587-3.193-16.682z"/>
          </g>
        </g>
      </defs>
      <g class="aKB1-yO5E8fillColor shapeStroke-str" style="stroke-width: 0;">
        <g>
          <path d="M157.307 112.881C145.592 85.859 99.863 10 99.863 10S54.415 85.891 42.716 112.881c-2.644 6.099-3.216 12.062-3.216 16.724C39.5 162.954 66.587 190 100.001 190s60.499-27.091 60.499-60.437c0-4.646-.549-10.587-3.193-16.682z"/>
        </g>
      </g>
    </svg>
  </g>
</svg>