<svg viewBox="587.7538 401.7613 283.7919 78.1098" width="5000" height="1376.1809269397752" xmlns="http://www.w3.org/2000/svg" xmlns:xlink="http://www.w3.org/1999/xlink" preserveAspectRatio="none"><defs></defs><style>.aa4qw3agIkjcolor {fill:#FFFFFF;fill-opacity:1;}.aD6z1nYkhcolor {fill:#176B87;fill-opacity:1;}.aKB1-yO5E8fillColor {fill:#176B87;fill-opacity:1;}.icon3-str {stroke:#797468;stroke-opacity:1;}.shapeStroke-str {stroke:#D24848;stroke-opacity:1;}</style><g opacity="1" transform="rotate(0 644.7818 424.8404)">
<svg width="226.7639" height="47" x="644.7818" y="424.8404" version="1.1" preserveAspectRatio="none" viewBox="1.76 -29.68 180.64000000000001 37.44">
  <g transform="matrix(1 0 0 1 0 0)" class="aD6z1nYkhcolor"><path id="id-D6z1nYkh8" d="M11.44-21.60Q16.16-21.60 18.66-19.34Q21.16-17.08 21.16-12.52L21.16-12.52L21.16 0L16.44 0L16.44-2.60Q15.52-1.20 13.82-0.46Q12.12 0.28 9.72 0.28L9.72 0.28Q7.32 0.28 5.52-0.54Q3.72-1.36 2.74-2.82Q1.76-4.28 1.76-6.12L1.76-6.12Q1.76-9 3.90-10.74Q6.04-12.48 10.64-12.48L10.64-12.48L16.16-12.48L16.16-12.80Q16.16-15.04 14.82-16.24Q13.48-17.44 10.84-17.44L10.84-17.44Q9.04-17.44 7.30-16.88Q5.56-16.32 4.36-15.32L4.36-15.32L2.40-18.96Q4.08-20.24 6.44-20.92Q8.80-21.60 11.44-21.60L11.44-21.60ZM10.76-3.36Q12.64-3.36 14.10-4.22Q15.56-5.08 16.16-6.68L16.16-6.68L16.16-9.16L11-9.16Q6.68-9.16 6.68-6.32L6.68-6.32Q6.68-4.96 7.76-4.16Q8.84-3.36 10.76-3.36L10.76-3.36Z M39-4.72L40.40-1.16Q39.52-0.44 38.26-0.08Q37 0.28 35.60 0.28L35.60 0.28Q32.08 0.28 30.16-1.56Q28.24-3.40 28.24-6.92L28.24-6.92L28.24-17.20L24.72-17.20L24.72-21.20L28.24-21.20L28.24-26.08L33.24-26.08L33.24-21.20L38.96-21.20L38.96-17.20L33.24-17.20L33.24-7.04Q33.24-5.48 34-4.66Q34.76-3.84 36.20-3.84L36.20-3.84Q37.88-3.84 39-4.72L39-4.72Z M52.68-21.60Q57.40-21.60 59.90-19.34Q62.40-17.08 62.40-12.52L62.40-12.52L62.40 0L57.68 0L57.68-2.60Q56.76-1.20 55.06-0.46Q53.36 0.28 50.96 0.28L50.96 0.28Q48.56 0.28 46.76-0.54Q44.96-1.36 43.98-2.82Q43-4.28 43-6.12L43-6.12Q43-9 45.14-10.74Q47.28-12.48 51.88-12.48L51.88-12.48L57.40-12.48L57.40-12.80Q57.40-15.04 56.06-16.24Q54.72-17.44 52.08-17.44L52.08-17.44Q50.28-17.44 48.54-16.88Q46.80-16.32 45.60-15.32L45.60-15.32L43.64-18.96Q45.32-20.24 47.68-20.92Q50.04-21.60 52.68-21.60L52.68-21.60ZM52-3.36Q53.88-3.36 55.34-4.22Q56.80-5.08 57.40-6.68L57.40-6.68L57.40-9.16L52.24-9.16Q47.92-9.16 47.92-6.32L47.92-6.32Q47.92-4.96 49-4.16Q50.08-3.36 52-3.36L52-3.36Z M84.92-29.68L89.92-29.68L89.92 0L85.12 0L85.12-2.76Q83.88-1.24 82.06-0.48Q80.24 0.28 78.04 0.28L78.04 0.28Q74.96 0.28 72.50-1.08Q70.04-2.44 68.64-4.94Q67.24-7.44 67.24-10.68L67.24-10.68Q67.24-13.92 68.64-16.40Q70.04-18.88 72.50-20.24Q74.96-21.60 78.04-21.60L78.04-21.60Q80.16-21.60 81.92-20.88Q83.68-20.16 84.92-18.72L84.92-18.72L84.92-29.68ZM78.64-4Q80.44-4 81.88-4.82Q83.32-5.64 84.16-7.16Q85.00-8.68 85.00-10.68L85.00-10.68Q85.00-12.68 84.16-14.20Q83.32-15.72 81.88-16.54Q80.44-17.36 78.64-17.36L78.64-17.36Q76.84-17.36 75.40-16.54Q73.96-15.72 73.12-14.20Q72.28-12.68 72.28-10.68L72.28-10.68Q72.28-8.68 73.12-7.16Q73.96-5.64 75.40-4.82Q76.84-4 78.64-4L78.64-4Z M101.24-18.24Q103.40-21.60 108.84-21.60L108.84-21.60L108.84-16.84Q108.20-16.96 107.68-16.96L107.68-16.96Q104.76-16.96 103.12-15.26Q101.48-13.56 101.48-10.36L101.48-10.36L101.48 0L96.48 0L96.48-21.36L101.24-21.36L101.24-18.24Z M122.48 0.28Q119.24 0.28 116.64-1.12Q114.04-2.52 112.58-5.02Q111.12-7.52 111.12-10.68L111.12-10.68Q111.12-13.84 112.58-16.32Q114.04-18.80 116.64-20.20Q119.24-21.60 122.48-21.60L122.48-21.60Q125.76-21.60 128.36-20.20Q130.96-18.80 132.42-16.32Q133.88-13.84 133.88-10.68L133.88-10.68Q133.88-7.52 132.42-5.02Q130.96-2.52 128.36-1.12Q125.76 0.28 122.48 0.28L122.48 0.28ZM122.48-4Q125.24-4 127.04-5.84Q128.84-7.68 128.84-10.68L128.84-10.68Q128.84-13.68 127.04-15.52Q125.24-17.36 122.48-17.36L122.48-17.36Q119.72-17.36 117.94-15.52Q116.16-13.68 116.16-10.68L116.16-10.68Q116.16-7.68 117.94-5.84Q119.72-4 122.48-4L122.48-4Z M150.52-21.60Q153.64-21.60 156.10-20.24Q158.56-18.88 159.96-16.40Q161.36-13.92 161.36-10.68L161.36-10.68Q161.36-7.44 159.96-4.94Q158.56-2.44 156.10-1.08Q153.64 0.28 150.52 0.28L150.52 0.28Q146.20 0.28 143.68-2.60L143.68-2.60L143.68 7.76L138.68 7.76L138.68-21.36L143.44-21.36L143.44-18.56Q144.68-20.08 146.50-20.84Q148.32-21.60 150.52-21.60L150.52-21.60ZM149.96-4Q152.72-4 154.50-5.84Q156.28-7.68 156.28-10.68L156.28-10.68Q156.28-13.68 154.50-15.52Q152.72-17.36 149.96-17.36L149.96-17.36Q148.16-17.36 146.72-16.54Q145.28-15.72 144.44-14.20Q143.60-12.68 143.60-10.68L143.60-10.68Q143.60-8.68 144.44-7.16Q145.28-5.64 146.72-4.82Q148.16-4 149.96-4L149.96-4Z M172.72 0.28Q170.12 0.28 167.64-0.40Q165.16-1.08 163.68-2.12L163.68-2.12L165.60-5.92Q167.04-4.96 169.06-4.38Q171.08-3.80 173.04-3.80L173.04-3.80Q177.52-3.80 177.52-6.16L177.52-6.16Q177.52-7.28 176.38-7.72Q175.24-8.16 172.72-8.56L172.72-8.56Q170.08-8.96 168.42-9.48Q166.76-10 165.54-11.30Q164.32-12.60 164.32-14.92L164.32-14.92Q164.32-17.96 166.86-19.78Q169.40-21.60 173.72-21.60L173.72-21.60Q175.92-21.60 178.12-21.10Q180.32-20.60 181.72-19.76L181.72-19.76L179.80-15.96Q177.08-17.56 173.68-17.56L173.68-17.56Q171.48-17.56 170.34-16.90Q169.20-16.24 169.20-15.16L169.20-15.16Q169.20-13.96 170.42-13.46Q171.64-12.96 174.20-12.52L174.20-12.52Q176.76-12.12 178.40-11.60Q180.04-11.08 181.22-9.84Q182.40-8.60 182.40-6.32L182.40-6.32Q182.40-3.32 179.80-1.52Q177.20 0.28 172.72 0.28L172.72 0.28Z"/></g>
</svg>
</g><g opacity="1" transform="rotate(29.7 619.5988 401.7613)">
<svg width="44.9675" height="64.2738" x="619.5988" y="401.7613" version="1.1" preserveAspectRatio="none" viewBox="39.5 10 121 180">
  <defs><g transform="matrix(1 0 0 1 0 0)" id="id-KB1-yO5E8"><g><path d="M157.307 112.881C145.592 85.859 99.863 10 99.863 10S54.415 85.891 42.716 112.881c-2.644 6.099-3.216 12.062-3.216 16.724C39.5 162.954 66.587 190 100.001 190s60.499-27.091 60.499-60.437c0-4.646-.549-10.587-3.193-16.682z"></path></g></g></defs><use class="aKB1-yO5E8fillColor shapeStroke-str" style="stroke-width:0;" xlink:href="#id-KB1-yO5E8"></use>
</svg>
</g><g opacity="1" transform="rotate(0 603.9191 424.8404)">
<svg width="28.9047" height="38.1829" x="603.9191" y="424.8404" version="1.1" preserveAspectRatio="none" viewBox="1.52 -29.68 22.68 29.96">
  <g transform="matrix(1 0 0 1 0 0)" class="aa4qw3agIkjcolor"><path id="id-a4qw3agIkj1" d="M19.20-29.68L24.20-29.68L24.20 0L19.40 0L19.40-2.76Q18.16-1.24 16.34-0.48Q14.52 0.28 12.32 0.28L12.32 0.28Q9.24 0.28 6.78-1.08Q4.32-2.44 2.92-4.94Q1.52-7.44 1.52-10.68L1.52-10.68Q1.52-13.92 2.92-16.40Q4.32-18.88 6.78-20.24Q9.24-21.60 12.32-21.60L12.32-21.60Q14.44-21.60 16.20-20.88Q17.96-20.16 19.20-18.72L19.20-18.72L19.20-29.68ZM12.92-4Q14.72-4 16.16-4.82Q17.60-5.64 18.44-7.16Q19.28-8.68 19.28-10.68L19.28-10.68Q19.28-12.68 18.44-14.20Q17.60-15.72 16.16-16.54Q14.72-17.36 12.92-17.36L12.92-17.36Q11.12-17.36 9.68-16.54Q8.24-15.72 7.40-14.20Q6.56-12.68 6.56-10.68L6.56-10.68Q6.56-8.68 7.40-7.16Q8.24-5.64 9.68-4.82Q11.12-4 12.92-4L12.92-4Z"/></g>
</svg>
</g></svg>